<?xml version="1.0" encoding="utf-8"?>
<!-- Generator: Adobe Illustrator 22.0.1, SVG Export Plug-In . SVG Version: 6.00 Build 0)  -->
<svg version="1.1" id="Layer_1" xmlns="http://www.w3.org/2000/svg" xmlns:xlink="http://www.w3.org/1999/xlink" x="0px" y="0px"
	 viewBox="0 0 42 73" style="enable-background:new 0 0 42 73;" xml:space="preserve">
<path d="M21,0C9.4,0,0,9.4,0,21v31c0,11.6,9.4,21,21,21s21-9.4,21-21V21C42,9.4,32.6,0,21,0z M39,52c0,9.9-8.1,18-18,18S3,61.9,3,52
	V21c0-9.9,8.1-18,18-18s18,8.1,18,18V52z M21,12.7c-1.8,0-3.3,1.5-3.3,3.3v10.8c0,1.8,1.5,3.3,3.3,3.3s3.3-1.5,3.3-3.3V15.9
	C24.3,14.1,22.8,12.7,21,12.7z"/>
</svg>
