<svg xmlns="http://www.w3.org/2000/svg" xmlns:xlink="http://www.w3.org/1999/xlink" width="194" height="105" viewBox="0 0 194 105"><defs><path id="tdnqa" d="M276.49 912.01a676 676 0 0 0-23.3.34c-.66-2.42-1.38-5.48-2.13-8 7.52-.45 14.77-.97 22.44-1.19.9 2.83 2.14 6.24 2.99 8.85zm-133.91-11.55c3.4 3.14 9.24 8.03 15.86 11.13a562.35 562.35 0 0 0-15.86 3.23zm-29.4-32.69h6.86c6.86 0 12.87-.28 19.02-.86v16.6c-6.15-.58-12.16-.87-19.02-.87h-6.87c.12 8.82.05 28.1.57 39.08-5.23 1.35-10.46 3.04-15.58 4.41H91c1-8.87 1-24.88 1-51.05 0-26.18 0-42.2-1-51.07h58.5v11.33c6.34-7.95 16.9-13.34 30.82-13.34 5.44 0 17.75 1.75 22.28 5.03l-5.7 18.72c-6.72-5.15-12.58-8.87-20.88-8.87-9.59 0-13.02 6.3-13.02 11.3 0 16.88 43.2 11.44 43.2 45.77 0 3.1-.4 6.18-1.2 9.17a875.7 875.7 0 0 0-20.76 2.86 12.4 12.4 0 0 0 1.66-6.17c0-18.6-43.2-15.73-43.2-45.2 0-5.11 1.28-10.14 3.71-14.64a275 275 0 0 0-24.37-1.1c-2.72 0-5.58 0-8.44.15-.29 8.3-.43 11.73-.43 28.75zm109.06 39.31c-.38 1.35-1.32 4.97-1.85 6.94C203.34 913.75 101 926.2 101 926.2c39.22-9.37 109.03-18.35 121.24-19.1zm24.86-17.75a857.72 857.72 0 0 0-9.49-32.86h-.28a1165.88 1165.88 0 0 0-10.93 36.3zm2.1-65.33h-.01m0 0c5.45 19.26 14.6 48.47 22.37 72.73-18.8 1.3-41.62 3.26-65.35 6.23 5.5-16.57 12.5-38.15 17.95-56.07 2.43-8.01 4.11-12.87 4.16-14.45.11-4.37-1.51-4.37-3.54-6.2z"/><path id="tdnqb" d="M138.71 874.42c33.07-4.39 130.4-7.93 140.45-6.47.7 2.4 5.94 16.57 5.94 16.57-23.65-5.95-108.1-11.12-146.37-10.1"/></defs><g><g transform="translate(-91 -822)"><use fill="#fff" xlink:href="#tdnqa"/></g><g transform="translate(-91 -822)"><use fill="#fff" xlink:href="#tdnqb"/></g></g></svg>