<svg class="google-logo" width="400" height="105.882" xmlns="http://www.w3.org/2000/svg"><g id="svgg" fill-rule="evenodd"><path id="path0" d="M364.667 35.167v13.5h-26.834V56.5h26.834v27.667H373V56.5h27v-7.833h-27v-27h-8.333v13.5" fill="#404040"/><path id="path2" d="M107.083 29.332c-2.225.204-3.793.569-6.501 1.51-1.519.528-4.763 2.191-5.525 2.833-.169.143-.626.462-1.015.711-.39.249-.709.526-.709.616 0 .091-.088.165-.196.165-.237 0-3.804 3.567-3.804 3.804 0 .092-.057.193-.128.223-.156.069-1.341 1.686-1.744 2.382-.531.916-2.126 4.17-2.127 4.337 0 .09-.144.54-.32 1-2.991 7.828-1.256 18.3 4.179 25.226 1.912 2.435 4.885 5.137 6.64 6.032.23.117.454.262.5.324.073.097 2.505 1.298 3.417 1.687a24.79 24.79 0 0 0 3.75 1.196l2.167.472c1.61.349 6.834.395 8.833.077 2.252-.358 5.389-1.207 6.48-1.753.149-.075.87-.423 1.603-.774 4.321-2.068 9.014-6.464 10.835-10.15.181-.367.416-.779.521-.917.26-.338 1.431-3.197 1.775-4.333 1.795-5.934 1.508-12.84-.788-18.98-.674-1.803-3.065-5.853-3.455-5.853-.076 0-.138-.082-.138-.181 0-.378-3.441-3.819-3.819-3.819-.099 0-.181-.062-.181-.137 0-.195-2.969-2.197-3.259-2.197-.132 0-.241-.064-.241-.143 0-.386-6.374-2.857-7.371-2.857-.154 0-.696-.108-1.206-.241-1.137-.296-6.075-.453-8.173-.26m188.834-.007c-1.742.199-4.208.822-5.667 1.431-1.398.584-3.29 1.567-4.312 2.24l-1.398.921c-2.035 1.337-5.058 4.822-6.552 7.549-.286.523-.574 1.026-.641 1.117-.791 1.09-2.057 5.234-2.622 8.584-.778 4.616.047 11.864 1.761 15.48 2.016 4.254 3.745 6.677 6.477 9.082 1.258 1.107 3.101 2.438 3.376 2.438.088 0 .161.064.161.143 0 .078.731.499 1.625.935.894.436 1.751.857 1.906.935 1.008.511 3.579 1.232 5.886 1.65 2.07.376 6.594.463 8.333.161.55-.096 1.412-.244 1.917-.328 2.524-.423 6.544-2.044 8.54-3.443.434-.304.859-.553.944-.553.085 0 .18-.057.21-.125.031-.069.356-.345.722-.613.853-.623.87-.639 2.751-2.47 2.551-2.484 3.892-4.292 3.181-4.292-.073 0-2.105-1.313-4.515-2.917-5.073-3.376-4.472-3.144-5.276-2.042-.788 1.081-1.353 1.743-1.873 2.195-.219.191-.556.507-.75.702-3.485 3.521-11.296 4.487-16.184 2.001-1.924-.979-3.616-2.525-5.082-4.643-1.085-1.569-1.072-1.635.447-2.281.716-.305 1.538-.658 1.827-.785.288-.127.57-.23.626-.23.056 0 .42-.14.808-.312.842-.371 3.9-1.655 4.374-1.836.183-.07.67-.291 1.083-.491.412-.199.814-.362.891-.362.078 0 .378-.102.667-.228a310.54 310.54 0 0 1 2.192-.926c1.788-.75 1.785-.749 3.417-1.422.595-.246 1.233-.509 1.416-.586l2-.833c.917-.382 1.817-.76 2-.84.184-.081.746-.306 1.25-.501a36.352 36.352 0 0 0 1.584-.661 29.118 29.118 0 0 1 1.416-.591 37.465 37.465 0 0 0 2.519-1.06c.422-.193.847-.351.944-.351.098 0 .389-.103.649-.228.441-.213 1.07-.494 2.602-1.164.347-.151.722-.277.834-.28.111-.003.334-.106.495-.228.317-.24.34-.142-.488-2.1l-.454-1.084c-2.623-6.315-5.694-10.286-10.286-13.304-1.221-.802-4.147-2.271-4.534-2.275-.166-.002-.466-.092-.667-.199-1.531-.822-7.258-1.355-10.53-.98M303 40.027c2.636.808 5.493 3.006 6.03 4.64.08.243-.664.833-1.051.833-.216 0-1.813.681-3.368 1.437-.259.126-.548.23-.641.23-.093 0-.443.122-.778.272a69.874 69.874 0 0 1-2.859 1.214 64.49 64.49 0 0 0-1.25.511c-.183.08-1.083.459-2 .84a2572.049 2572.049 0 0 0-4 1.672c-.916.383-1.966.83-2.333.994-.367.163-1.454.619-2.417 1.011-.962.393-1.821.775-1.908.85-.985.844-.708-3.292.387-5.781.406-.924.551-1.207.855-1.667.181-.275.381-.612.444-.75.401-.874 2.688-3.259 3.941-4.108.384-.261.735-.517.781-.57.238-.275 2.018-1.096 3.417-1.575 1.756-.603 4.876-.627 6.75-.053m-189.833.073c3.495.714 6.959 2.939 8.797 5.65.248.367.499.704.557.75.173.138 1.412 2.704 1.635 3.388 1.148 3.519 1.173 8.403.059 11.362-.499 1.328-.953 2.339-1.165 2.596-.119.145-.217.323-.217.396 0 .615-2.995 3.854-4.5 4.867-4.86 3.27-11.507 3.187-16.352-.206-1.03-.72-3.425-3.13-3.572-3.592-.054-.171-.168-.311-.254-.311-.085 0-.155-.082-.155-.183 0-.1-.136-.381-.303-.625-1.959-2.86-2.781-9.344-1.651-13.025.716-2.334.844-2.624 2.076-4.704.603-1.018 2.956-3.465 3.916-4.071 3.764-2.375 7.227-3.089 11.129-2.292" fill="#db3236"/><path id="path3" d="M35 .344c-3.315.584-8.43 2.07-9.993 2.904-.233.125-.799.395-1.257.602-2.145.968-5.104 2.783-7.417 4.549-2.849 2.175-8.833 8.443-8.833 9.252 0 .081-.112.19-.25.243-.138.052-.25.199-.25.325s-.15.365-.333.531c-.184.166-.334.371-.334.456 0 .085-.252.542-.56 1.016a19.999 19.999 0 0 0-.857 1.445c-.163.321-.36.696-.437.833-.197.352-.961 1.957-1.309 2.75-.161.367-.415.941-.565 1.275-.149.335-.272.671-.272.747 0 .076-.143.515-.318.975C-.489 34.818-.741 45.02 1.427 52c.76 2.448 1.284 3.912 1.818 5.083.619 1.358 2.146 4.363 2.33 4.584.114.137.257.362.318.5.061.137.241.44.401.672.159.233.439.663.623.957.183.295.389.536.458.536.069.001.125.076.125.167 0 1.137 9.85 10.834 11.005 10.834.076 0 .24.094.365.209.302.277.771.577 1.38.883.275.138.8.434 1.167.659.61.373 1.556.844 3.083 1.535.321.145.714.327.873.406 1.818.893 6.347 2.141 10.21 2.813 2.044.355 9.8.407 12.148.08 4.601-.639 9.423-2.02 12.341-3.533l.761-.396c5.808-3.017 10.66-7.371 13.58-12.186.937-1.545 2.158-3.82 2.506-4.67.236-.577.499-1.2.584-1.383.466-1.003 1.391-4.073 1.731-5.75.802-3.947.816-4.08.891-8.471.07-4.157-.119-6.783-.574-7.969-.072-.189-3.219-.227-19.069-.227H41.5v11.334h13.428c12.71 0 13.423.015 13.343.291-.046.161-.132.742-.19 1.292-.127 1.201-.634 3.324-1.095 4.583a45.895 45.895 0 0 0-.44 1.25c-.789 2.504-4.675 7.488-7.278 9.334-7.614 5.398-17.871 6.839-26.935 3.785-3.182-1.073-4.627-1.836-8.444-4.457-3.457-2.375-6.915-6.868-9.234-11.995-5.256-11.625-1.162-27.367 9.178-35.293.688-.527 1.341-1.033 1.452-1.124.11-.092.247-.166.303-.166.056 0 .416-.216.799-.48 6.306-4.338 17.235-5.559 24.78-2.766 1.382.511 3.966 1.666 4.708 2.104.444.261.841.475.884.475.043 0 .451.262.908.583.456.321.905.584.998.584.093 0 .168.069.168.153 0 .084.244.304.542.489.556.344.921.649 1.986 1.654l.611.577.529-.562c.51-.541 3.302-3.425 6.062-6.262 1.602-1.646 1.601-1.655-.341-3.232a59.948 59.948 0 0 1-1.487-1.233c-.099-.095-.624-.472-1.166-.837-.542-.365-1.023-.708-1.069-.762-1.315-1.547-11.049-5.458-15.083-6.06-.275-.041-1.175-.19-2-.333C45.162-.129 37.385-.076 35 .344m187.167 28.985c-2.527.192-5.294.957-8 2.214-.787.365-3.69 2.083-3.834 2.268-.046.059-.533.442-1.083.851-3.179 2.365-6.838 7.31-8.168 11.038-1.151 3.226-1.321 3.912-1.664 6.717-1.306 10.686 4.014 21.651 12.825 26.434 1.273.692 3.296 1.649 3.483 1.649.114 0 .279.068.366.151.729.696 5.323 1.514 8.506 1.515 5.558.001 9.231-1.347 12.835-4.713l1.234-1.153-.002 3.725c-.003 3.917-.029 4.101-1.024 7.225-.413 1.295-1.911 3.578-2.974 4.533l-.667.599c-1.379 1.242-3.847 2.306-6.266 2.702-6.628 1.087-12.436-1.889-15.556-7.969-.571-1.111-.756-1.249-1.305-.966-.159.082-.965.426-1.79.763-.825.338-1.725.712-2 .832-.428.186-1.845.776-3 1.249-1.827.75-2.916 1.231-2.916 1.288 0 .071 1.206 2.376 1.554 2.969 1.726 2.943 7.002 8.583 8.029 8.583.054 0 .188.08.299.177 2.627 2.304 8.238 3.823 14.124 3.823 4.672 0 5.905-.192 9.827-1.531 4.484-1.531 9.064-5.456 11.444-9.807 1.546-2.825 2.65-6.281 3.219-10.078.457-3.05.498-5.4.501-28.959l.003-24.625h-11.49l-.047 1.996-.047 1.995-.88-.835c-3.716-3.528-9.113-5.147-15.536-4.66m6.285 10.848c9.323 2.134 14.001 13.706 9.463 23.406-.344.734-.672 1.371-.73 1.417-.057.046-.303.389-.545.763-5.11 7.891-17.411 7.571-22.914-.596-3.367-4.997-3.541-13.424-.375-18.134.266-.394.482-.753.482-.798 0-.343 3.102-3.403 4.084-4.028.458-.293.908-.591 1-.663.16-.126.726-.371 2.166-.934.698-.273 2.752-.727 3.75-.83.863-.088 2.079.045 3.619.397" fill="#4885ed"/><path id="path4" d="M257.667 41.667v39H269.5v-78h-11.833v39" fill="#3cba54"/><path id="path5" d="M164.833 29.323c-.779.069-1.754.209-2.166.309-.413.101-.975.223-1.25.273-.275.049-1.288.345-2.25.657-2.935.951-5.877 2.576-8.489 4.688-.878.71-3.202 3.13-3.881 4.042-.393.527-.77.983-.839 1.014a.236.236 0 0 0-.125.2c0 .079-.216.466-.48.861-.543.81-1.67 3.026-2.08 4.091l-.515 1.334c-.231.594-.728 2.411-.856 3.125-.784 4.372-.744 8.216.122 11.75.101.412.241 1.012.312 1.333.37 1.676 2.511 6.524 3.166 7.167.046.045.301.417.565.824.265.408.546.82.625.917l.759.925c1.492 1.819 5.011 4.905 6.049 5.305.137.053.512.274.833.493.629.427 1.753.975 3.084 1.502 2.28.903 2.648 1.034 2.909 1.034.155 0 .613.103 1.019.23 2.464.77 8.765 1.011 11.572.443 1.643-.333 3.628-.837 4.25-1.08l1.5-.587a24.812 24.812 0 0 0 4-2.069l1.237-.81c1.318-.865 3.66-3.07 4.897-4.611.339-.421.672-.791.741-.822.068-.03.125-.155.125-.278 0-.122.056-.247.125-.277.166-.074 1.541-2.205 1.541-2.388 0-.078.1-.26.221-.405.534-.637 1.702-3.753 2.348-6.263.941-3.656.97-9.11.068-12.917a77.287 77.287 0 0 1-.304-1.333c-.07-.321-.261-.958-.425-1.417l-.477-1.333c-.224-.624-2.019-4.172-2.256-4.457-.095-.115-.604-.772-1.13-1.46-5.498-7.186-14.607-10.901-24.545-10.01m6.38 10.856c.804.178 1.592.39 1.75.472.158.081.625.282 1.037.446.412.165.862.387 1 .494.137.108.611.404 1.052.658 2.684 1.545 5.251 5.3 6.325 9.251.679 2.496.348 8.797-.528 10.083-.063.092-.293.617-.513 1.167-3.953 9.917-18.197 11.798-24.658 3.255-4.013-5.304-4.614-13.871-1.314-18.697.167-.244.303-.496.303-.56 0-.162 1.649-2.225 2.192-2.743 2.209-2.108 4.458-3.283 7.474-3.907 2.353-.486 3.382-.472 5.88.081" fill="#f4c20d"/></g></svg>