<svg xmlns="http://www.w3.org/2000/svg" viewBox="3461.658 610.83 47.527 60.17">
  <g id="lca-icon" transform="translate(3463.658 615.83)">
    <path id="Path_2423" class="cls-1" d="M16.414,2.23A27.253,27.253,0,0,0,3.6,12.866H14.125Z" transform="translate(-0.582 -0.173)"
    />
    <path id="Path_2424" class="cls-1" d="M25.864-.24a25.011,25.011,0,0,0-2.952.2l-.52,2.432L20.22,12.453H34.544l-.579,2.715-.7,3.248H18.953l-2.759,12.8H9.485l2.164-10.069.587-2.715H.512a1.938,1.938,0,0,1-.117.416C-1.87,29.41,5.871,37.947,17.654,37.93s23.205-8.578,25.478-19.156S37.664-.257,25.864-.24Z"
      transform="translate(-0.001 0.24)" />
  </g>
</svg>