<svg id="Layer_1" data-name="Layer 1" xmlns="http://www.w3.org/2000/svg" viewBox="0 0 862.29 195.78"><defs><style>.cls-1{fill:#fff}</style></defs><path class="cls-1" d="M770.25 75a90.74 90.74 0 0 0-42.58 35.72h35z" transform="translate(0 -.04)"/><path class="cls-1" d="M803.59 68.13a82.46 82.46 0 0 0-9.81.66l-1.73 8.15-7.19 33.7h47.62l-1.9 9-2.31 10.87h-47.6l-9.2 42.88h-22.3l7.19-33.71 1.95-9.08h-39a6.58 6.58 0 0 1-.39 1.39c-7.53 35.27 18.18 63.85 57.38 63.79s77.14-28.72 84.7-64.13-18.18-63.58-57.41-63.52z" transform="translate(0 -.04)"/><path class="cls-1" d="M0 9.03h17.34v105.95H68v15.28H0V9.03z"/><path class="cls-1" d="M86.85 47.91A56.26 56.26 0 0 1 116 39.55c25.31 0 35.54 12.49 35.54 36.61v36.63a141.4 141.4 0 0 0 .7 17.34H137V118.7h-.36a32.78 32.78 0 0 1-27.41 13.52c-19.07 0-32.45-8.36-32.45-27.57 0-22.3 24.28-29.14 41.12-29.14 6.41 0 10.93 0 17.34.34 0-15.28-5.57-23.09-21.86-23.09a41.59 41.59 0 0 0-25.67 9zM135.25 88c-3.46 0-6.94-.37-10.4-.37-8.84 0-30.67 1.4-30.67 17 0 9.37 9 14.39 16.48 14.39 16.14 0 24.65-10.07 24.65-23.26zm34.55 24.79a43.53 43.53 0 0 0 20.29 6.21c7.45 0 16.73-3.13 16.73-12.66 0-16.14-38.33-14.75-38.33-39.56 0-18.41 13.71-27.24 31.22-27.24A67.81 67.81 0 0 1 220 43.06l-1.39 14.22a47.71 47.71 0 0 0-17.18-4.52c-8.36 0-15.61 3.49-15.61 10.77 0 18 38.34 12.82 38.34 41.12 0 18.9-15.09 27.57-30.9 27.57a50.74 50.74 0 0 1-24.26-4.85z" transform="translate(0 -.04)"/><path class="cls-1" d="M243.32 41.63h16.31v88.49h-16.31zm38-41.63h16.31v77.54l35.58-35.91h22.3l-41.15 39.23 46.31 49.26h-23.42l-39.56-45.45v45.45h-16.37V0z"/><path class="cls-1" d="M380 8.93h32.4c26.55 0 53.26 2.79 53.26 33.46S441 87.84 411.83 87.84h-16.47l-9 42.35h-32.55zm20.09 55.77h8.68c12.85 0 24.48-4.52 24.48-18.93 0-11.63-8-14-16.73-14H407z" transform="translate(0 -.04)"/><path class="cls-1" d="M488.31 0h31.59l-27.07 130.15h-31.59L488.31 0z"/><path class="cls-1" d="M612.27 106.46c-1.56 7.81-2.95 15.45-3.82 23.62h-29l2.43-14.75h-.33c-9 10.06-18.41 16.73-34.88 16.73-18.24 0-28.11-13.53-28.11-31.23a83.09 83.09 0 0 1 2.44-19.1l8.36-42.15h32.29L552.91 82a73.15 73.15 0 0 0-2.09 13.72c0 5.38 3.49 10.76 12.16 10.4 13.18 0 21-11.46 23.25-24.82l8.84-41.65h31.25zm20.83-.46a63.51 63.51 0 0 0 25.31 5.21c5 0 17.54-.53 17.54-8 0-12.86-37.3-6.25-37.3-36.11 0-21.16 24.64-29.66 45.64-29.66a104.07 104.07 0 0 1 30 5.38l-6.61 20.49a62.36 62.36 0 0 0-25.1-5c-6.94 0-14.58 1.56-14.58 7.81 0 10.06 39 9.37 39 32.12s-18.91 33.45-42.35 33.85a143.77 143.77 0 0 1-38-4.69zm96.02-49.39a6.08 6.08 0 0 1-6-6.15 1.69 1.69 0 0 1 0-.23 6 6 0 0 1 12-.82 5.61 5.61 0 0 1 0 .82 6.07 6.07 0 0 1-5.77 6.37zm0 1.53a7.92 7.92 0 1 0-7.92-7.91 7.92 7.92 0 0 0 7.92 7.91zm-3-3.45h1.67v-3.88h1l2.31 3.85h1.7l-2.39-3.93a2.23 2.23 0 0 0 2.34-2.11 2.81 2.81 0 0 0 0-.29c0-1.9-1.17-2.62-3.32-2.62h-3.32zm1.63-7.69h1.48c.87 0 1.81.17 1.81 1.23s-.83 1.33-1.84 1.33h-1.47z" transform="translate(0 -.04)"/><circle class="cls-1" cx="250.93" cy="13.55" r="8.62"/></svg>