<svg class="google-logo" version="1.1" width="400" height="105.88235294117648" viewBox="0 0 400 105.88235294117648" xmlns="http://www.w3.org/2000/svg" xmlns:xlink="http://www.w3.org/1999/xlink" ><g id="svgg"><path id="path0" d="M364.667 35.167 L 364.667 48.667 351.250 48.667 L 337.833 48.667 337.833 52.583 L 337.833 56.500 351.250 56.500 L 364.667 56.500 364.667 70.333 L 364.667 84.167 368.833 84.167 L 373.000 84.167 373.000 70.333 L 373.000 56.500 386.500 56.500 L 400.000 56.500 400.000 52.583 L 400.000 48.667 386.500 48.667 L 373.000 48.667 373.000 35.167 L 373.000 21.667 368.833 21.667 L 364.667 21.667 364.667 35.167 " stroke="none" fill="#404040" fill-rule="evenodd"></path><path id="path1" d="" stroke="none" fill="#0000ff" fill-rule="evenodd"></path><path id="path2" d="M107.083 29.332 C 104.858 29.536,103.290 29.901,100.582 30.842 C 99.063 31.370,95.819 33.033,95.057 33.675 C 94.888 33.818,94.431 34.137,94.042 34.386 C 93.652 34.635,93.333 34.912,93.333 35.002 C 93.333 35.093,93.245 35.167,93.137 35.167 C 92.900 35.167,89.333 38.734,89.333 38.971 C 89.333 39.063,89.276 39.164,89.205 39.194 C 89.049 39.263,87.864 40.880,87.461 41.576 C 86.930 42.492,85.335 45.746,85.334 45.913 C 85.334 46.003,85.190 46.453,85.014 46.913 C 82.023 54.741,83.758 65.213,89.193 72.139 C 91.105 74.574,94.078 77.276,95.833 78.171 C 96.063 78.288,96.287 78.433,96.333 78.495 C 96.406 78.592,98.838 79.793,99.750 80.182 C 100.777 80.619,102.404 81.138,103.500 81.378 C 104.188 81.528,105.162 81.741,105.667 81.850 C 107.277 82.199,112.501 82.245,114.500 81.927 C 116.752 81.569,119.889 80.720,120.980 80.174 C 121.129 80.099,121.850 79.751,122.583 79.400 C 126.904 77.332,131.597 72.936,133.418 69.250 C 133.599 68.883,133.834 68.471,133.939 68.333 C 134.199 67.995,135.370 65.136,135.714 64.000 C 137.509 58.066,137.222 51.160,134.926 45.020 C 134.252 43.217,131.861 39.167,131.471 39.167 C 131.395 39.167,131.333 39.085,131.333 38.986 C 131.333 38.608,127.892 35.167,127.514 35.167 C 127.415 35.167,127.333 35.105,127.333 35.030 C 127.333 34.835,124.364 32.833,124.074 32.833 C 123.942 32.833,123.833 32.769,123.833 32.690 C 123.833 32.304,117.459 29.833,116.462 29.833 C 116.308 29.833,115.766 29.725,115.256 29.592 C 114.119 29.296,109.181 29.139,107.083 29.332 M295.917 29.325 C 294.175 29.524,291.709 30.147,290.250 30.756 C 288.852 31.340,286.960 32.323,285.938 32.996 C 285.308 33.411,284.679 33.825,284.540 33.917 C 282.505 35.254,279.482 38.739,277.988 41.466 C 277.702 41.989,277.414 42.492,277.347 42.583 C 276.556 43.673,275.290 47.817,274.725 51.167 C 273.947 55.783,274.772 63.031,276.486 66.647 C 278.502 70.901,280.231 73.324,282.963 75.729 C 284.221 76.836,286.064 78.167,286.339 78.167 C 286.427 78.167,286.500 78.231,286.500 78.310 C 286.500 78.388,287.231 78.809,288.125 79.245 C 289.019 79.681,289.876 80.102,290.031 80.180 C 291.039 80.691,293.610 81.412,295.917 81.830 C 297.987 82.206,302.511 82.293,304.250 81.991 C 304.800 81.895,305.662 81.747,306.167 81.663 C 308.691 81.240,312.711 79.619,314.707 78.220 C 315.141 77.916,315.566 77.667,315.651 77.667 C 315.736 77.667,315.831 77.610,315.861 77.542 C 315.892 77.473,316.217 77.197,316.583 76.929 C 317.436 76.306,317.453 76.290,319.334 74.459 C 321.885 71.975,323.226 70.167,322.515 70.167 C 322.442 70.167,320.410 68.854,318.000 67.250 C 312.927 63.874,313.528 64.106,312.724 65.208 C 311.936 66.289,311.371 66.951,310.851 67.403 C 310.632 67.594,310.295 67.910,310.101 68.105 C 306.616 71.626,298.805 72.592,293.917 70.106 C 291.993 69.127,290.301 67.581,288.835 65.463 C 287.750 63.894,287.763 63.828,289.282 63.182 C 289.998 62.877,290.820 62.524,291.109 62.397 C 291.397 62.270,291.679 62.167,291.735 62.167 C 291.791 62.167,292.155 62.027,292.543 61.855 C 293.385 61.484,296.443 60.200,296.917 60.019 C 297.100 59.949,297.587 59.728,298.000 59.528 C 298.412 59.329,298.814 59.166,298.891 59.166 C 298.969 59.166,299.269 59.064,299.558 58.938 C 299.847 58.813,300.833 58.396,301.750 58.012 C 303.538 57.262,303.535 57.263,305.167 56.590 C 305.762 56.344,306.400 56.081,306.583 56.004 C 306.767 55.928,307.667 55.553,308.583 55.171 C 309.500 54.789,310.400 54.411,310.583 54.331 C 310.767 54.250,311.329 54.025,311.833 53.830 C 312.337 53.634,313.050 53.337,313.417 53.169 C 313.783 53.002,314.421 52.735,314.833 52.578 C 315.760 52.224,316.361 51.971,317.352 51.518 C 317.774 51.325,318.199 51.167,318.296 51.167 C 318.394 51.167,318.685 51.064,318.945 50.939 C 319.386 50.726,320.015 50.445,321.547 49.775 C 321.894 49.624,322.269 49.498,322.381 49.495 C 322.492 49.492,322.715 49.389,322.876 49.267 C 323.193 49.027,323.216 49.125,322.388 47.167 C 322.253 46.846,322.049 46.358,321.934 46.083 C 319.311 39.768,316.240 35.797,311.648 32.779 C 310.427 31.977,307.501 30.508,307.114 30.504 C 306.948 30.502,306.648 30.412,306.447 30.305 C 304.916 29.483,299.189 28.950,295.917 29.325 M303.000 40.027 C 305.636 40.835,308.493 43.033,309.030 44.667 C 309.110 44.910,308.366 45.500,307.979 45.500 C 307.763 45.500,306.166 46.181,304.611 46.937 C 304.352 47.063,304.063 47.167,303.970 47.167 C 303.877 47.167,303.527 47.289,303.192 47.439 C 302.061 47.944,301.254 48.287,300.333 48.653 C 299.829 48.854,299.267 49.084,299.083 49.164 C 298.900 49.244,298.000 49.623,297.083 50.004 C 296.167 50.386,295.267 50.762,295.083 50.839 C 294.900 50.917,294.000 51.293,293.083 51.676 C 292.167 52.059,291.117 52.506,290.750 52.670 C 290.383 52.833,289.296 53.289,288.333 53.681 C 287.371 54.074,286.512 54.456,286.425 54.531 C 285.440 55.375,285.717 51.239,286.812 48.750 C 287.218 47.826,287.363 47.543,287.667 47.083 C 287.848 46.808,288.048 46.471,288.111 46.333 C 288.512 45.459,290.799 43.074,292.052 42.225 C 292.436 41.964,292.787 41.708,292.833 41.655 C 293.071 41.380,294.851 40.559,296.250 40.080 C 298.006 39.477,301.126 39.453,303.000 40.027 M113.167 40.100 C 116.662 40.814,120.126 43.039,121.964 45.750 C 122.212 46.117,122.463 46.454,122.521 46.500 C 122.694 46.638,123.933 49.204,124.156 49.888 C 125.304 53.407,125.329 58.291,124.215 61.250 C 123.716 62.578,123.262 63.589,123.050 63.846 C 122.931 63.991,122.833 64.169,122.833 64.242 C 122.833 64.857,119.838 68.096,118.333 69.109 C 113.473 72.379,106.826 72.296,101.981 68.903 C 100.951 68.183,98.556 65.773,98.409 65.311 C 98.355 65.140,98.241 65.000,98.155 65.000 C 98.070 65.000,98.000 64.918,98.000 64.817 C 98.000 64.717,97.864 64.436,97.697 64.192 C 95.738 61.332,94.916 54.848,96.046 51.167 C 96.762 48.833,96.890 48.543,98.122 46.463 C 98.725 45.445,101.078 42.998,102.038 42.392 C 105.802 40.017,109.265 39.303,113.167 40.100 " stroke="none" fill="#db3236" fill-rule="evenodd"></path><path id="path3" d="M35.000 0.344 C 31.685 0.928,26.570 2.414,25.007 3.248 C 24.774 3.373,24.208 3.643,23.750 3.850 C 21.605 4.818,18.646 6.633,16.333 8.399 C 13.484 10.574,7.500 16.842,7.500 17.651 C 7.500 17.732,7.388 17.841,7.250 17.894 C 7.112 17.946,7.000 18.093,7.000 18.219 C 7.000 18.345,6.850 18.584,6.667 18.750 C 6.483 18.916,6.333 19.121,6.333 19.206 C 6.333 19.291,6.081 19.748,5.773 20.222 C 5.465 20.696,5.079 21.346,4.916 21.667 C 4.753 21.988,4.556 22.363,4.479 22.500 C 4.282 22.852,3.518 24.457,3.170 25.250 C 3.009 25.617,2.755 26.191,2.605 26.525 C 2.456 26.860,2.333 27.196,2.333 27.272 C 2.333 27.348,2.190 27.787,2.015 28.247 C -0.489 34.818,-0.741 45.020,1.427 52.000 C 2.187 54.448,2.711 55.912,3.245 57.083 C 3.864 58.441,5.391 61.446,5.575 61.667 C 5.689 61.804,5.832 62.029,5.893 62.167 C 5.954 62.304,6.134 62.607,6.294 62.839 C 6.453 63.072,6.733 63.502,6.917 63.796 C 7.100 64.091,7.306 64.332,7.375 64.332 C 7.444 64.333,7.500 64.408,7.500 64.499 C 7.500 65.636,17.350 75.333,18.505 75.333 C 18.581 75.333,18.745 75.427,18.870 75.542 C 19.172 75.819,19.641 76.119,20.250 76.425 C 20.525 76.563,21.050 76.859,21.417 77.084 C 22.027 77.457,22.973 77.928,24.500 78.619 C 24.821 78.764,25.214 78.946,25.373 79.025 C 27.191 79.918,31.720 81.166,35.583 81.838 C 37.627 82.193,45.383 82.245,47.731 81.918 C 52.332 81.279,57.154 79.898,60.072 78.385 C 60.353 78.239,60.696 78.061,60.833 77.989 C 66.641 74.972,71.493 70.618,74.413 65.803 C 75.350 64.258,76.571 61.983,76.919 61.133 C 77.155 60.556,77.418 59.933,77.503 59.750 C 77.969 58.747,78.894 55.677,79.234 54.000 C 80.036 50.053,80.050 49.920,80.125 45.529 C 80.195 41.372,80.006 38.746,79.551 37.560 C 79.479 37.371,76.332 37.333,60.482 37.333 L 41.500 37.333 41.500 43.000 L 41.500 48.667 54.928 48.667 C 67.638 48.667,68.351 48.682,68.271 48.958 C 68.225 49.119,68.139 49.700,68.081 50.250 C 67.954 51.451,67.447 53.574,66.986 54.833 C 66.802 55.337,66.604 55.900,66.546 56.083 C 65.757 58.587,61.871 63.571,59.268 65.417 C 51.654 70.815,41.397 72.256,32.333 69.202 C 29.151 68.129,27.706 67.366,23.889 64.745 C 20.432 62.370,16.974 57.877,14.655 52.750 C 9.399 41.125,13.493 25.383,23.833 17.457 C 24.521 16.930,25.174 16.424,25.285 16.333 C 25.395 16.241,25.532 16.167,25.588 16.167 C 25.644 16.167,26.004 15.951,26.387 15.687 C 32.693 11.349,43.622 10.128,51.167 12.921 C 52.549 13.432,55.133 14.587,55.875 15.025 C 56.319 15.286,56.716 15.500,56.759 15.500 C 56.802 15.500,57.210 15.762,57.667 16.083 C 58.123 16.404,58.572 16.667,58.665 16.667 C 58.758 16.667,58.833 16.736,58.833 16.820 C 58.833 16.904,59.077 17.124,59.375 17.309 C 59.931 17.653,60.296 17.958,61.361 18.963 L 61.972 19.540 62.501 18.978 C 63.011 18.437,65.803 15.553,68.563 12.716 C 70.165 11.070,70.164 11.061,68.222 9.484 C 67.504 8.901,66.835 8.346,66.735 8.251 C 66.636 8.156,66.111 7.779,65.569 7.414 C 65.027 7.049,64.546 6.706,64.500 6.652 C 63.185 5.105,53.451 1.194,49.417 0.592 C 49.142 0.551,48.242 0.402,47.417 0.259 C 45.162 -0.129,37.385 -0.076,35.000 0.344 M222.167 29.329 C 219.640 29.521,216.873 30.286,214.167 31.543 C 213.380 31.908,210.477 33.626,210.333 33.811 C 210.287 33.870,209.800 34.253,209.250 34.662 C 206.071 37.027,202.412 41.972,201.082 45.700 C 199.931 48.926,199.761 49.612,199.418 52.417 C 198.112 63.103,203.432 74.068,212.243 78.851 C 213.516 79.543,215.539 80.500,215.726 80.500 C 215.840 80.500,216.005 80.568,216.092 80.651 C 216.821 81.347,221.415 82.165,224.598 82.166 C 230.156 82.167,233.829 80.819,237.433 77.453 L 238.667 76.300 238.665 80.025 C 238.662 83.942,238.636 84.126,237.641 87.250 C 237.228 88.545,235.730 90.828,234.667 91.783 C 234.438 91.989,234.137 92.259,234.000 92.382 C 232.621 93.624,230.153 94.688,227.734 95.084 C 221.106 96.171,215.298 93.195,212.178 87.115 C 211.607 86.004,211.422 85.866,210.873 86.149 C 210.714 86.231,209.908 86.575,209.083 86.912 C 208.258 87.250,207.358 87.624,207.083 87.744 C 206.655 87.930,205.238 88.520,204.083 88.993 C 202.256 89.743,201.167 90.224,201.167 90.281 C 201.167 90.352,202.373 92.657,202.721 93.250 C 204.447 96.193,209.723 101.833,210.750 101.833 C 210.804 101.833,210.938 101.913,211.049 102.010 C 213.676 104.314,219.287 105.833,225.173 105.833 C 229.845 105.833,231.078 105.641,235.000 104.302 C 239.484 102.771,244.064 98.846,246.444 94.495 C 247.990 91.670,249.094 88.214,249.663 84.417 C 250.120 81.367,250.161 79.017,250.164 55.458 L 250.167 30.833 244.422 30.833 L 238.677 30.833 238.630 32.829 L 238.583 34.824 237.703 33.989 C 233.987 30.461,228.590 28.842,222.167 29.329 M228.452 40.177 C 237.775 42.311,242.453 53.883,237.915 63.583 C 237.571 64.317,237.243 64.954,237.185 65.000 C 237.128 65.046,236.882 65.389,236.640 65.763 C 231.530 73.654,219.229 73.334,213.726 65.167 C 210.359 60.170,210.185 51.743,213.351 47.033 C 213.617 46.639,213.833 46.280,213.833 46.235 C 213.833 45.892,216.935 42.832,217.917 42.207 C 218.375 41.914,218.825 41.616,218.917 41.544 C 219.077 41.418,219.643 41.173,221.083 40.610 C 221.781 40.337,223.835 39.883,224.833 39.780 C 225.696 39.692,226.912 39.825,228.452 40.177 " stroke="none" fill="#4885ed" fill-rule="evenodd"></path><path id="path4" d="M257.667 41.667 L 257.667 80.667 263.583 80.667 L 269.500 80.667 269.500 41.667 L 269.500 2.667 263.583 2.667 L 257.667 2.667 257.667 41.667 " stroke="none" fill="#3cba54" fill-rule="evenodd"></path><path id="path5" d="M164.833 29.323 C 164.054 29.392,163.079 29.532,162.667 29.632 C 162.254 29.733,161.692 29.855,161.417 29.905 C 161.142 29.954,160.129 30.250,159.167 30.562 C 156.232 31.513,153.290 33.138,150.678 35.250 C 149.800 35.960,147.476 38.380,146.797 39.292 C 146.404 39.819,146.027 40.275,145.958 40.306 C 145.890 40.336,145.833 40.426,145.833 40.506 C 145.833 40.585,145.617 40.972,145.353 41.367 C 144.810 42.177,143.683 44.393,143.273 45.458 C 143.123 45.848,142.891 46.448,142.758 46.792 C 142.527 47.386,142.030 49.203,141.902 49.917 C 141.118 54.289,141.158 58.133,142.024 61.667 C 142.125 62.079,142.265 62.679,142.336 63.000 C 142.706 64.676,144.847 69.524,145.502 70.167 C 145.548 70.212,145.803 70.584,146.067 70.991 C 146.332 71.399,146.613 71.811,146.692 71.908 C 146.771 72.004,147.113 72.421,147.451 72.833 C 148.943 74.652,152.462 77.738,153.500 78.138 C 153.637 78.191,154.012 78.412,154.333 78.631 C 154.962 79.058,156.086 79.606,157.417 80.133 C 159.697 81.036,160.065 81.167,160.326 81.167 C 160.481 81.167,160.939 81.270,161.345 81.397 C 163.809 82.167,170.110 82.408,172.917 81.840 C 174.560 81.507,176.545 81.003,177.167 80.760 C 177.487 80.635,178.162 80.371,178.667 80.173 C 179.895 79.691,181.548 78.837,182.667 78.104 C 183.171 77.774,183.728 77.409,183.904 77.294 C 185.222 76.429,187.564 74.224,188.801 72.683 C 189.140 72.262,189.473 71.892,189.542 71.861 C 189.610 71.831,189.667 71.706,189.667 71.583 C 189.667 71.461,189.723 71.336,189.792 71.306 C 189.958 71.232,191.333 69.101,191.333 68.918 C 191.333 68.840,191.433 68.658,191.554 68.513 C 192.088 67.876,193.256 64.760,193.902 62.250 C 194.843 58.594,194.872 53.140,193.970 49.333 C 193.872 48.921,193.735 48.321,193.666 48.000 C 193.596 47.679,193.405 47.042,193.241 46.583 C 193.077 46.125,192.862 45.525,192.764 45.250 C 192.540 44.626,190.745 41.078,190.508 40.793 C 190.413 40.678,189.904 40.021,189.378 39.333 C 183.880 32.147,174.771 28.432,164.833 29.323 M171.213 40.179 C 172.017 40.357,172.805 40.569,172.963 40.651 C 173.121 40.732,173.588 40.933,174.000 41.097 C 174.412 41.262,174.862 41.484,175.000 41.591 C 175.137 41.699,175.611 41.995,176.052 42.249 C 178.736 43.794,181.303 47.549,182.377 51.500 C 183.056 53.996,182.725 60.297,181.849 61.583 C 181.786 61.675,181.556 62.200,181.336 62.750 C 177.383 72.667,163.139 74.548,156.678 66.005 C 152.665 60.701,152.064 52.134,155.364 47.308 C 155.531 47.064,155.667 46.812,155.667 46.748 C 155.667 46.586,157.316 44.523,157.859 44.005 C 160.068 41.897,162.317 40.722,165.333 40.098 C 167.686 39.612,168.715 39.626,171.213 40.179 " stroke="none" fill="#f4c20d" fill-rule="evenodd"></path><path id="path6" d="" stroke="none" fill="#00ffff" fill-rule="evenodd"></path></g></svg>