<svg xmlns="http://www.w3.org/2000/svg" viewBox="3463.658 615.83 43.527 38.17"><defs><style>.cls-1{fill:#fff}</style></defs><g id="lca-icon" transform="translate(3463.658 615.83)"><path id="Path_2423" data-name="Path 2423" class="cls-1" d="M16.414 2.23A27.253 27.253 0 0 0 3.6 12.866h10.525z" transform="translate(-.582 -.173)"/><path id="Path_2424" data-name="Path 2424" class="cls-1" d="M25.864-.24a25.011 25.011 0 0 0-2.952.2l-.52 2.432-2.172 10.061h14.324l-.579 2.715-.7 3.248H18.953l-2.759 12.8H9.485l2.164-10.069.587-2.715H.512a1.938 1.938 0 0 1-.117.416C-1.87 29.41 5.871 37.947 17.654 37.93s23.205-8.578 25.478-19.156S37.664-.257 25.864-.24z" transform="translate(-.001 .24)"/></g></svg>