<svg id="Capa_1" xmlns="http://www.w3.org/2000/svg" viewBox="0 0 486.392 486.392"><path d="M464.413 0H21.948C9.849 0 0 9.819 0 21.918v442.555c0 12.069 9.849 21.918 21.948 21.918h442.464c12.129 0 21.979-9.849 21.979-21.918V21.918C486.392 9.819 476.542 0 464.413 0zM243.196 158.32c46.876 0 84.875 37.999 84.875 84.875s-37.999 84.875-84.875 84.875-84.875-37.999-84.875-84.875 37.999-84.875 84.875-84.875zm182.397 267.273H60.799V212.796h40.036c-2.098 9.819-3.314 19.972-3.314 30.399 0 80.346 65.359 145.674 145.674 145.674 80.346 0 145.674-65.328 145.674-145.674 0-10.427-1.216-20.58-3.283-30.399h40.006v212.797zm0-273.596h-91.198V60.799h91.198v91.198z" fill="#010002"/></svg>